<svg width="169" height="168" viewBox="0 0 169 168" fill="none" xmlns="http://www.w3.org/2000/svg">
<g clip-path="url(#clip0_119_145)">
<path d="M142.441 50.6893C142.108 25.492 121.606 4.34409 96.3307 4.34409C80.2284 4.34409 65.1082 13.0484 56.7633 25.5934C53.0905 23.1514 48.6877 21.7234 43.9489 21.7234C31.1489 21.7234 20.7761 32.0989 20.7761 44.8962C20.7761 45.3395 20.8168 45.771 20.8427 46.2114C20.8138 46.7387 20.7761 47.2715 20.7761 47.7929C9.22166 53.3311 0.5 66.496 0.5 80.1041C0.5 98.9755 15.9388 114.414 34.8101 114.414H41.0521V106.57C41.0521 104.502 42.7262 102.828 44.7915 102.828H124.207C126.272 102.828 127.95 104.502 127.95 106.57V114.414H135.521C151.467 114.414 165.706 103.161 168.122 87.3978C170.816 69.8327 158.764 53.7655 142.441 50.6893Z" fill="#8697CB"/>
<path d="M107.672 163.656H61.3272C50.1292 163.656 41.0511 154.578 41.0511 143.38V106.57C41.0511 104.502 42.7253 102.828 44.7935 102.828H124.206C126.274 102.828 127.949 104.502 127.949 106.57V143.38C127.949 154.578 118.871 163.656 107.672 163.656Z" fill="#5C6887"/>
<path d="M84.4997 123.104C81.3047 123.104 78.7066 125.702 78.7066 128.897C78.7066 132.092 81.3047 134.69 84.4997 134.69C87.6947 134.69 90.2928 132.092 90.2928 128.897C90.2931 125.702 87.6947 123.104 84.4997 123.104ZM84.4997 140.483C78.1097 140.483 72.9135 135.287 72.9135 128.897C72.9135 122.508 78.11 117.311 84.4997 117.311C90.8893 117.311 96.0859 122.508 96.0859 128.897C96.0859 135.287 90.8897 140.483 84.4997 140.483Z" fill="white"/>
<path d="M84.4997 149.173C82.8978 149.173 81.603 147.876 81.603 146.277V137.587C81.603 135.988 82.8978 134.69 84.4997 134.69C86.1016 134.69 87.3964 135.988 87.3964 137.587V146.277C87.3964 147.876 86.1016 149.173 84.4997 149.173Z" fill="white"/>
<path d="M116.362 102.828H104.776V91.2415C104.776 80.0634 95.678 70.9654 84.5 70.9654C73.322 70.9654 64.2236 80.0634 64.2236 91.2415V102.828H52.6374V91.2415C52.6374 73.6738 66.932 59.3792 84.4997 59.3792C102.067 59.3792 116.362 73.6738 116.362 91.2415V102.828H116.362Z" fill="#3D4763"/>
<path d="M127.946 53.5857C126.538 53.5857 125.304 52.5603 125.087 51.1238C124.846 49.5422 125.932 48.0649 127.514 47.8244C135.019 46.6862 142.547 47.7782 142.863 47.8244C144.444 48.059 145.536 49.5304 145.305 51.112C145.073 52.6965 143.584 53.7915 142.017 53.5539C141.945 53.5454 134.999 52.5459 128.383 53.5539C128.238 53.5772 128.091 53.5857 127.946 53.5857Z" fill="#5C6887"/>
<path d="M70.017 47.7926C68.4151 47.7926 67.1203 46.4949 67.1203 44.8959C67.1203 33.7152 58.0223 24.6198 46.8443 24.6198C35.6662 24.6198 26.5682 33.7152 26.5682 44.8959C26.5682 46.4949 25.2734 47.7926 23.6715 47.7926C22.0695 47.7926 20.7747 46.4949 20.7747 44.8959C20.7747 30.5232 32.4683 18.8267 46.8439 18.8267C61.2196 18.8267 72.9131 30.5232 72.9131 44.8959C72.9134 46.4949 71.6186 47.7926 70.017 47.7926Z" fill="#5C6887"/>
</g>
<defs>
<clipPath id="clip0_119_145">
<rect width="168" height="168" fill="white" transform="translate(0.5)"/>
</clipPath>
</defs>
</svg>
